<svg width="43" height="32" viewBox="0 0 43 32" fill="none" xmlns="http://www.w3.org/2000/svg">
<path d="M11.8429 11.2344C11.8547 11.4102 11.8195 11.5801 11.7375 11.7441C11.6672 11.9082 11.6027 12.0547 11.5441 12.1836L10.9816 12.7812L10.6476 13.7832C10.5187 13.877 10.3781 13.9707 10.2257 14.0645C10.0851 14.1465 9.95622 14.2344 9.83903 14.3281C9.71012 14.4336 9.59294 14.5508 9.48747 14.6797C9.39372 14.8086 9.28825 14.9199 9.17106 15.0137C9.05387 15.1074 8.91325 15.1895 8.74919 15.2598C8.59684 15.3184 8.45622 15.3887 8.32731 15.4707C8.09294 15.6113 7.87028 15.7578 7.65934 15.9102C7.46012 16.0625 7.24919 16.209 7.02653 16.3496C6.96794 16.373 6.92106 16.4023 6.88591 16.4375C6.86247 16.4609 6.82145 16.4844 6.76286 16.5078C6.7277 16.5312 6.57536 16.5781 6.30583 16.6484C6.0363 16.7188 5.73747 16.8008 5.40934 16.8945C5.09294 16.9766 4.79411 17.0527 4.51286 17.123C4.23161 17.1934 4.07341 17.2285 4.03825 17.2285C3.82731 17.252 3.61052 17.2637 3.38786 17.2637C3.1652 17.2637 2.94255 17.2695 2.71989 17.2812L2.45622 17.4395C2.32731 17.3457 2.18669 17.2578 2.03434 17.1758C1.882 17.0938 1.75309 17.0059 1.64762 16.9121C1.53044 16.8066 1.41325 16.6895 1.29606 16.5605C1.17887 16.4199 1.07341 16.291 0.979656 16.1738C0.921062 16.0098 0.862469 15.8516 0.803875 15.6992C0.745281 15.5352 0.698406 15.377 0.66325 15.2246L0.575359 14.5566C0.551922 14.334 0.528484 14.1172 0.505047 13.9062C0.493328 13.6953 0.47575 13.4785 0.452312 13.2559C0.651531 12.7051 0.827312 12.1543 0.979656 11.6035C1.14372 11.041 1.34294 10.4902 1.57731 9.95117C1.63591 9.82227 1.68864 9.69336 1.73552 9.56445C1.79411 9.42383 1.8527 9.28906 1.9113 9.16016C1.98161 9.01953 2.05778 8.89062 2.13981 8.77344C2.22184 8.64453 2.29216 8.51562 2.35075 8.38672C2.40934 8.24609 2.45622 8.10547 2.49137 7.96484C2.52653 7.8125 2.57341 7.67188 2.632 7.54297C2.66716 7.47266 2.72575 7.37305 2.80778 7.24414C2.88981 7.10352 2.9777 6.96289 3.07145 6.82227C3.1652 6.66992 3.25309 6.52344 3.33512 6.38281C3.42887 6.24219 3.50505 6.13086 3.56364 6.04883C3.65739 5.93164 3.75114 5.82031 3.84489 5.71484C3.93864 5.60938 4.01481 5.49219 4.07341 5.36328C4.19059 5.16406 4.30192 4.91211 4.40739 4.60742C4.51286 4.30273 4.63005 4.0332 4.75895 3.79883C4.89958 3.54102 5.06364 3.30078 5.25114 3.07812C5.45036 2.84375 5.632 2.60352 5.79606 2.35742C5.97184 2.11133 6.14177 1.8418 6.30583 1.54883L7.07927 0.986328L7.43083 1.33789L8.27458 1.19727L8.80192 1.98828C8.77848 2.16406 8.74919 2.36328 8.71403 2.58594C8.69059 2.80859 8.66716 3.03711 8.64372 3.27148C8.632 3.49414 8.62028 3.7168 8.60856 3.93945C8.60856 4.15039 8.62028 4.33789 8.64372 4.50195C8.58512 4.71289 8.49723 4.93555 8.38005 5.16992C8.27458 5.39258 8.15153 5.58594 8.01091 5.75L7.94059 6.69922L7.23747 7.33203L7.14958 8.22852L6.55192 8.93164C6.51677 9.0957 6.48161 9.26562 6.44645 9.44141C6.4113 9.60547 6.36442 9.76367 6.30583 9.91602C6.24723 10.0566 6.17692 10.2031 6.09489 10.3555C6.01286 10.4961 5.93083 10.6426 5.8488 10.7949C5.61442 10.9941 5.37419 11.2168 5.12809 11.4629C4.882 11.709 4.65934 11.9551 4.46012 12.2012C4.35466 12.3301 4.25505 12.4707 4.1613 12.623C4.07927 12.7637 3.99137 12.8984 3.89762 13.0273C3.59294 13.4141 3.26481 13.7773 2.91325 14.1172C2.56169 14.457 2.21598 14.8086 1.87614 15.1719L2.26286 15.8574C2.50895 15.9395 2.76091 16.0156 3.01872 16.0859C3.27653 16.1562 3.53434 16.2207 3.79216 16.2793C3.90934 16.2559 4.04411 16.2324 4.19645 16.209C4.3488 16.1738 4.507 16.1387 4.67106 16.1035C4.83512 16.0566 4.99333 16.0098 5.14567 15.9629C5.30973 15.916 5.4445 15.8691 5.54997 15.8223C5.78434 15.7285 6.05387 15.5938 6.35856 15.418C6.66325 15.2305 6.92106 15.0664 7.132 14.9258C7.507 14.6914 7.88786 14.4512 8.27458 14.2051C8.6613 13.959 9.03044 13.7012 9.382 13.4316C9.61637 13.2559 9.86247 13.0332 10.1203 12.7637C10.3781 12.4941 10.6183 12.2422 10.841 12.0078C11.0754 11.7617 11.2804 11.5625 11.4562 11.4102C11.6437 11.2578 11.7726 11.1992 11.8429 11.2344ZM7.06169 2.91992C6.81559 3.33008 6.55192 3.72852 6.27067 4.11523C6.00114 4.49023 5.74919 4.88281 5.51481 5.29297C5.43278 5.43359 5.36247 5.58008 5.30387 5.73242C5.24528 5.87305 5.16911 6.01367 5.07536 6.1543C4.99333 6.2832 4.90544 6.41211 4.81169 6.54102C4.71794 6.66992 4.63591 6.81055 4.56559 6.96289C4.42497 7.23242 4.29606 7.51953 4.17887 7.82422C4.07341 8.11719 3.95622 8.4043 3.82731 8.68555C3.68669 8.9668 3.52262 9.23047 3.33512 9.47656C3.14762 9.72266 2.9777 9.98633 2.82536 10.2676L2.54411 10.8301C2.52067 10.8887 2.49723 10.9355 2.4738 10.9707C2.45036 10.9941 2.42692 11.0352 2.40348 11.0938C2.35661 11.2227 2.33317 11.3633 2.33317 11.5156C2.33317 11.668 2.31559 11.8086 2.28044 11.9375C2.24528 12.0781 2.19255 12.2129 2.12223 12.3418C2.05192 12.4707 1.98747 12.5996 1.92887 12.7285C1.87028 12.8574 1.82341 12.9922 1.78825 13.1328C1.75309 13.2617 1.71208 13.3906 1.6652 13.5195C1.75895 13.4258 1.85856 13.3438 1.96403 13.2734C2.08122 13.1914 2.19255 13.1035 2.29802 13.0098C2.40348 12.9043 2.50309 12.793 2.59684 12.6758C2.69059 12.5586 2.79606 12.4531 2.91325 12.3594C3.01872 12.2656 3.13005 12.1836 3.24723 12.1133C3.37614 12.0312 3.49919 11.9492 3.61637 11.8672C3.80387 11.6094 3.96794 11.3457 4.10856 11.0762C4.17887 10.9473 4.23747 10.8008 4.28434 10.6367C4.34294 10.4727 4.41325 10.3262 4.49528 10.1973C4.56559 10.0684 4.65348 9.94531 4.75895 9.82812C4.87614 9.71094 4.97575 9.58789 5.05778 9.45898C5.15153 9.33008 5.2277 9.19531 5.2863 9.05469C5.35661 8.91406 5.43278 8.7793 5.51481 8.65039C5.67887 8.39258 5.86052 8.14648 6.05973 7.91211L6.14762 6.80469L6.78044 6.06641L6.86833 5.39844L7.30778 4.7832L7.36052 3.79883L7.06169 2.91992ZM21.5285 11.4805C21.5754 11.6562 21.5578 11.8086 21.4757 11.9375C21.3937 12.0547 21.2824 12.1602 21.1418 12.2539C21.0129 12.3477 20.8664 12.4355 20.7023 12.5176C20.55 12.5879 20.4211 12.6699 20.3156 12.7637C19.7882 12.8809 19.3078 12.9688 18.8742 13.0273C18.4523 13.0742 17.9836 13.1387 17.4679 13.2207C17.3156 13.2441 17.1691 13.2441 17.0285 13.2207C16.8996 13.1855 16.7648 13.1738 16.6242 13.1855C16.5422 13.1855 16.466 13.1855 16.3957 13.1855C16.3254 13.1738 16.255 13.1738 16.1847 13.1855C15.9152 13.209 15.7394 13.3027 15.6574 13.4668C15.5754 13.6191 15.505 13.8008 15.4465 14.0117C15.3996 14.2109 15.3351 14.4043 15.2531 14.5918C15.1828 14.7676 15.0246 14.8906 14.7785 14.9609C14.755 15.0195 14.7609 15.0723 14.7961 15.1191C14.8429 15.166 14.8781 15.207 14.9015 15.2422C14.7023 15.3008 14.5675 15.4062 14.4972 15.5586C14.4386 15.7109 14.3859 15.8633 14.339 16.0156C14.2922 16.168 14.2218 16.2969 14.1281 16.4023C14.0461 16.5078 13.882 16.543 13.6359 16.5078C13.2726 16.8945 12.8449 17.2051 12.3527 17.4395C11.8605 17.6855 11.3507 17.8438 10.8234 17.9141C10.7297 17.8672 10.6359 17.8086 10.5422 17.7383C10.4601 17.668 10.3722 17.6035 10.2785 17.5449C10.1965 17.4863 10.1027 17.4395 9.99723 17.4043C9.90348 17.3809 9.79216 17.3809 9.66325 17.4043C9.65153 17.1582 9.60466 16.9297 9.52262 16.7188C9.42887 16.5078 9.31169 16.3086 9.17106 16.1211C9.14762 15.9102 9.17692 15.7168 9.25895 15.541C9.32927 15.3535 9.40544 15.1719 9.48747 14.9961C9.5695 14.8203 9.63981 14.6445 9.69841 14.4688C9.74528 14.2812 9.73356 14.0703 9.66325 13.8359C9.78044 13.7656 9.85661 13.6836 9.89177 13.5898C9.93864 13.4961 9.96794 13.4023 9.97966 13.3086C10.0031 13.2031 10.0324 13.1094 10.0675 13.0273C10.1027 12.9336 10.1847 12.8574 10.3136 12.7988C10.2199 12.5176 10.2316 12.3125 10.3488 12.1836C10.4777 12.043 10.63 11.9199 10.8058 11.8145C10.9816 11.709 11.1457 11.5918 11.298 11.4629C11.4504 11.334 11.509 11.1406 11.4738 10.8828C11.5441 10.8125 11.6261 10.7539 11.7199 10.707C11.8136 10.6602 11.9015 10.6191 11.9836 10.584C12.0773 10.5371 12.1652 10.4902 12.2472 10.4434C12.3293 10.3965 12.4054 10.332 12.4757 10.25C12.3937 10.1914 12.3527 10.1328 12.3527 10.0742C12.3644 10.0156 12.382 9.95703 12.4054 9.89844C12.4289 9.82812 12.4523 9.75781 12.4757 9.6875C12.5109 9.61719 12.5109 9.54688 12.4757 9.47656C12.7922 9.52344 13.0675 9.48242 13.3019 9.35352C13.548 9.21289 13.7765 9.07227 13.9875 8.93164C14.2101 8.79102 14.4328 8.69141 14.6554 8.63281C14.8781 8.57422 15.1359 8.64453 15.4289 8.84375C15.4523 8.92578 15.4875 9.04883 15.5343 9.21289C15.5929 9.36523 15.6457 9.52344 15.6925 9.6875C15.7511 9.85156 15.8039 10.0098 15.8507 10.1621C15.8976 10.3145 15.9269 10.4258 15.9386 10.4961C15.9386 10.5547 15.9386 10.6484 15.9386 10.7773C15.9386 10.9062 15.9386 11.0469 15.9386 11.1992C15.9386 11.3398 15.9386 11.4746 15.9386 11.6035C15.9386 11.7324 15.9386 11.832 15.9386 11.9023C16.2785 12.1016 16.6183 12.2246 16.9582 12.2715C17.298 12.3066 17.6379 12.2246 17.9777 12.0254C18.1066 12.1426 18.2297 12.1777 18.3468 12.1309C18.464 12.0723 18.5754 12.0078 18.6808 11.9375C18.798 11.8672 18.9152 11.832 19.0324 11.832C19.1496 11.8203 19.2668 11.9141 19.384 12.1133C19.548 11.9609 19.7179 11.8672 19.8937 11.832C20.0695 11.7852 20.2511 11.7617 20.4386 11.7617C20.6261 11.75 20.8078 11.7324 20.9836 11.709C21.1711 11.6855 21.3527 11.6094 21.5285 11.4805ZM14.7785 11.7793C14.7785 11.6035 14.8078 11.416 14.8664 11.2168C14.925 11.0176 14.9718 10.8242 15.007 10.6367C15.0422 10.4375 15.0363 10.25 14.9894 10.0742C14.9543 9.89844 14.8429 9.74023 14.6554 9.59961C14.5265 9.66992 14.4211 9.76953 14.339 9.89844C14.257 10.0156 14.175 10.1387 14.0929 10.2676C14.0109 10.3848 13.9113 10.4844 13.7941 10.5664C13.6886 10.6484 13.548 10.6719 13.3722 10.6367C13.3136 10.7773 13.3136 10.8945 13.3722 10.9883C13.4308 11.0703 13.5011 11.1523 13.5832 11.2344C13.6652 11.3047 13.7414 11.3809 13.8117 11.4629C13.8937 11.5449 13.923 11.6504 13.8996 11.7793C13.9465 11.8145 14.0109 11.8496 14.0929 11.8848C14.175 11.9082 14.257 11.9258 14.339 11.9375C14.4328 11.9375 14.5207 11.9258 14.6027 11.9023C14.6847 11.8789 14.7433 11.8379 14.7785 11.7793ZM14.6554 13.1855C14.4211 13.1855 14.216 13.1328 14.0402 13.0273C13.8761 12.9102 13.7062 12.7812 13.5304 12.6406C13.3664 12.5 13.1906 12.3711 13.0031 12.2539C12.8273 12.125 12.6105 12.0488 12.3527 12.0254C12.2472 12.166 12.1242 12.3008 11.9836 12.4297C11.8429 12.5469 11.7199 12.6758 11.6144 12.8164C11.509 12.957 11.4328 13.1094 11.3859 13.2734C11.3507 13.4375 11.38 13.625 11.4738 13.8359C11.2043 13.9648 11.0226 14.1523 10.9289 14.3984C10.8351 14.6328 10.7707 14.8906 10.7355 15.1719C10.7121 15.4531 10.6886 15.7344 10.6652 16.0156C10.6418 16.2969 10.5656 16.5488 10.4367 16.7715L10.8234 16.5078C10.8703 16.5312 10.9054 16.5664 10.9289 16.6133C10.964 16.6602 10.9699 16.7129 10.9465 16.7715C11.0402 16.6777 11.1457 16.6074 11.2629 16.5605C11.38 16.502 11.4972 16.4609 11.6144 16.4375C11.7433 16.4023 11.8664 16.373 11.9836 16.3496C12.1125 16.3262 12.2355 16.291 12.3527 16.2441C12.6457 16.4082 12.8566 16.4434 12.9855 16.3496C13.1144 16.2559 13.2199 16.1152 13.3019 15.9277C13.384 15.7402 13.4718 15.5469 13.5656 15.3477C13.6593 15.1367 13.8117 15.0078 14.0226 14.9609L13.8996 14.8379C14.0988 14.5918 14.2746 14.3398 14.4269 14.082C14.591 13.8125 14.6672 13.5137 14.6554 13.1855ZM31.9172 11.9727C31.7882 12.1367 31.6886 12.3184 31.6183 12.5176C31.548 12.7168 31.4601 12.9043 31.3547 13.0801C31.2609 13.2559 31.1379 13.4023 30.9855 13.5195C30.8449 13.6367 30.6457 13.6895 30.3879 13.6777C30.2004 13.748 30.0597 13.877 29.966 14.0645C29.884 14.2402 29.8019 14.4219 29.7199 14.6094C29.6379 14.7852 29.5324 14.9316 29.4035 15.0488C29.2746 15.1543 29.0812 15.166 28.8234 15.084C28.4953 15.2246 28.1965 15.4121 27.9269 15.6465C27.6691 15.8691 27.423 16.1035 27.1886 16.3496C27.1066 16.4316 27.0129 16.5371 26.9074 16.666C26.8019 16.7832 26.7023 16.8711 26.6086 16.9297C26.5265 16.9766 26.4445 16.9824 26.3625 16.9473C26.2804 16.9121 26.2043 16.877 26.134 16.8418C26.0636 16.7949 25.9933 16.7715 25.923 16.7715C25.8644 16.7715 25.8117 16.8242 25.7648 16.9297C25.8468 17.0938 25.8644 17.2051 25.8175 17.2637C25.7707 17.334 25.6945 17.3867 25.589 17.4219C25.4836 17.457 25.3722 17.4863 25.255 17.5098C25.1379 17.5332 25.0441 17.5742 24.9738 17.6328C24.8332 17.7617 24.7336 17.9199 24.675 18.1074C24.6164 18.2949 24.5636 18.4824 24.5168 18.6699C24.4699 18.8574 24.3996 19.0332 24.3058 19.1973C24.2238 19.373 24.0832 19.5078 23.884 19.6016C24.0011 19.6836 24.048 19.7656 24.0246 19.8477C24.0129 19.9297 23.9836 20.0117 23.9367 20.0938C23.8898 20.1875 23.8547 20.2754 23.8312 20.3574C23.8195 20.4395 23.8664 20.5215 23.9718 20.6035C23.7961 20.8262 23.6379 21.0664 23.4972 21.3242C23.3683 21.582 23.2394 21.8398 23.1105 22.0977C22.9816 22.3672 22.841 22.625 22.6886 22.8711C22.548 23.1289 22.3664 23.3574 22.1437 23.5566L22.1965 23.9785C22.0207 23.9316 21.9093 23.9375 21.8625 23.9961C21.8273 24.0547 21.8097 24.1367 21.8097 24.2422C21.8097 24.3477 21.8097 24.4531 21.8097 24.5586C21.8215 24.6758 21.7863 24.7637 21.7043 24.8223C21.6691 24.8691 21.6281 24.9043 21.5812 24.9277C21.5461 24.9512 21.5109 24.9805 21.4757 25.0156C21.1007 25.2969 20.8429 25.6543 20.7023 26.0879C20.6789 26.1582 20.6613 26.2285 20.6496 26.2988C20.6379 26.3691 20.6203 26.4453 20.5968 26.5273C20.5382 26.6914 20.4445 26.8613 20.3156 27.0371C20.1867 27.2129 20.0461 27.3945 19.8937 27.582C19.7414 27.7695 19.5949 27.9629 19.4543 28.1621C19.3136 28.373 19.2023 28.584 19.1203 28.7949C18.9328 28.7715 18.7863 28.7891 18.6808 28.8477C18.5636 28.918 18.4699 29.0059 18.3996 29.1113C18.3293 29.2285 18.2707 29.3516 18.2238 29.4805C18.1769 29.6094 18.1183 29.7207 18.048 29.8145C17.966 29.9199 17.8664 29.9961 17.7492 30.043C17.6203 30.1016 17.4562 30.1016 17.257 30.043L16.466 30.7637C16.3254 30.6816 16.1906 30.6641 16.0617 30.7109C15.9211 30.7578 15.7863 30.8223 15.6574 30.9043C15.5168 30.9863 15.382 31.0508 15.2531 31.0977C15.1125 31.1445 14.966 31.127 14.8136 31.0449C14.7316 31.1387 14.6613 31.1855 14.6027 31.1855C14.5441 31.1973 14.4738 31.1504 14.3918 31.0449L14.1281 31.3262C13.9875 31.209 13.8175 31.0977 13.6183 30.9922C13.4074 30.8984 13.214 30.7871 13.0382 30.6582C12.8625 30.541 12.7218 30.4004 12.6164 30.2363C12.5109 30.084 12.4933 29.8848 12.5636 29.6387C12.5402 29.5684 12.505 29.4922 12.4582 29.4102C12.3996 29.3281 12.3527 29.2402 12.3175 29.1465C12.2824 29.0645 12.259 28.9766 12.2472 28.8828C12.2355 28.8008 12.259 28.7246 12.3175 28.6543C12.2121 28.4551 12.1769 28.25 12.2121 28.0391C12.2355 27.8398 12.2765 27.6406 12.3351 27.4414C12.3937 27.2422 12.4406 27.043 12.4757 26.8438C12.5109 26.6445 12.4757 26.4453 12.3703 26.2461C12.5109 26.1406 12.6164 26.0059 12.6867 25.8418C12.7453 25.6777 12.8039 25.5078 12.8625 25.332C12.9093 25.1562 12.9621 24.9863 13.0207 24.8223C13.0793 24.6582 13.1789 24.5234 13.3195 24.418L13.3019 24.1367C13.8527 23.5508 14.4386 23.0117 15.0597 22.5195C15.6691 22.0391 16.3605 21.6816 17.134 21.4473C17.2863 21.1777 17.4855 20.9785 17.7316 20.8496C17.9777 20.7324 18.2297 20.6211 18.4875 20.5156C18.7336 20.4219 18.9621 20.2988 19.173 20.1465C19.384 20.0059 19.5422 19.7773 19.6476 19.4609C19.7062 19.5898 19.7648 19.6426 19.8234 19.6191C19.882 19.6074 19.9406 19.5781 19.9992 19.5312C20.0695 19.4961 20.134 19.4668 20.1925 19.4434C20.2511 19.4316 20.3097 19.4844 20.3683 19.6016C20.4855 19.25 20.673 18.9688 20.9308 18.7578C21.2004 18.5469 21.4933 18.3594 21.8097 18.1953C22.1379 18.043 22.466 17.8906 22.7941 17.7383C23.1222 17.5977 23.4093 17.4219 23.6554 17.2109C23.9132 17 24.1066 16.7422 24.2355 16.4375C24.3644 16.1211 24.3937 15.7168 24.3234 15.2246C24.4289 15.1543 24.4992 15.0664 24.5343 14.9609C24.5695 14.8438 24.5929 14.7266 24.6047 14.6094C24.6281 14.4922 24.6574 14.3867 24.6925 14.293C24.7277 14.1992 24.8039 14.1348 24.9211 14.0996C24.839 13.9707 24.7394 13.9121 24.6222 13.9238C24.505 13.9355 24.382 13.9707 24.2531 14.0293C24.1359 14.0879 24.0246 14.1465 23.9191 14.2051C23.8136 14.2637 23.7257 14.2754 23.6554 14.2402C23.6203 14.4043 23.5441 14.5215 23.4269 14.5918C23.3215 14.6621 23.2043 14.7266 23.0754 14.7852C22.9465 14.832 22.8117 14.8848 22.6711 14.9434C22.5304 15.002 22.4191 15.0957 22.3371 15.2246C22.2316 15.1777 22.132 15.2012 22.0382 15.2949C21.9562 15.377 21.8683 15.4707 21.7746 15.5762C21.6925 15.6699 21.5988 15.7402 21.4933 15.7871C21.3879 15.834 21.2648 15.7871 21.1242 15.6465C21.0539 15.834 20.9367 15.957 20.7726 16.0156C20.6203 16.0742 20.4504 16.1035 20.2629 16.1035C20.0754 16.1035 19.882 16.0918 19.6828 16.0684C19.4953 16.0449 19.3254 16.0508 19.173 16.0859L18.8742 15.7871C18.8507 15.8457 18.8156 15.8926 18.7687 15.9277C18.7101 15.9629 18.6515 15.9688 18.5929 15.9453C18.4992 15.7461 18.4113 15.5352 18.3293 15.3125C18.2355 15.0781 18.1769 14.8496 18.1535 14.627C18.1183 14.3926 18.1359 14.1699 18.2062 13.959C18.2765 13.7363 18.4172 13.543 18.6281 13.3789C18.9562 12.7812 19.384 12.3125 19.9113 11.9727C19.9699 12.0195 20.0343 12.0371 20.1047 12.0254C20.175 12.002 20.2453 11.9727 20.3156 11.9375C20.3976 11.8906 20.4738 11.8438 20.5441 11.7969C20.6144 11.7383 20.6789 11.7031 20.7375 11.6914C20.7726 11.5625 20.8371 11.4395 20.9308 11.3223C21.0363 11.2051 21.1476 11.0996 21.2648 11.0059C21.3937 10.9121 21.5226 10.8301 21.6515 10.7598C21.7922 10.6777 21.9211 10.6074 22.0382 10.5488C22.2609 10.4434 22.466 10.3145 22.6535 10.1621C22.8527 9.99805 23.0519 9.8457 23.2511 9.70508C23.4504 9.55273 23.6554 9.42383 23.8664 9.31836C24.0773 9.21289 24.3175 9.16016 24.5871 9.16016L24.9035 9.44141C24.7043 9.55859 24.5285 9.70508 24.3761 9.88086C24.2355 10.0449 24.089 10.2148 23.9367 10.3906C23.7843 10.5547 23.6203 10.707 23.4445 10.8477C23.2687 10.9883 23.0519 11.082 22.7941 11.1289C22.5832 11.5391 22.2961 11.8906 21.9328 12.1836C21.5812 12.4648 21.2179 12.7285 20.8429 12.9746C20.8429 13.1504 20.7902 13.291 20.6847 13.3965C20.5793 13.502 20.4562 13.5957 20.3156 13.6777C20.175 13.7598 20.0343 13.8359 19.8937 13.9062C19.7531 13.9648 19.6359 14.0469 19.5422 14.1523C19.4601 14.2461 19.4191 14.3691 19.4191 14.5215C19.4191 14.6621 19.4953 14.8496 19.6476 15.084C19.7882 15.0137 19.9582 14.9668 20.1574 14.9434C20.3566 14.9199 20.55 14.8906 20.7375 14.8555C20.925 14.8086 21.089 14.7441 21.2297 14.6621C21.382 14.5684 21.4875 14.4277 21.5461 14.2402C21.7101 14.0996 21.8859 14.0117 22.0734 13.9766C22.2609 13.9414 22.4543 13.9355 22.6535 13.959C23.0402 13.5371 23.4269 13.1504 23.8136 12.7988C24.2121 12.4355 24.5871 12.0664 24.9386 11.6914C25.2902 11.3164 25.6125 10.918 25.9054 10.4961C26.2101 10.0625 26.4738 9.56445 26.6965 9.00195C26.9308 8.93164 27.1418 8.96094 27.3293 9.08984C27.5168 9.21875 27.6515 9.38281 27.7336 9.58203C27.7101 9.72266 27.6691 9.85742 27.6105 9.98633C27.5636 10.1035 27.5168 10.2207 27.4699 10.3379C27.4347 10.4434 27.4054 10.5605 27.382 10.6895C27.3703 10.8184 27.3937 10.9648 27.4523 11.1289C27.3586 11.1055 27.2824 11.1348 27.2238 11.2168C27.1769 11.2988 27.1242 11.3691 27.0656 11.4277C27.1007 11.5801 27.0949 11.7207 27.048 11.8496C27.0011 11.9668 26.9425 12.084 26.8722 12.2012C26.8019 12.3066 26.7375 12.4238 26.6789 12.5527C26.632 12.6816 26.6203 12.8223 26.6437 12.9746C26.4797 13.2793 26.3566 13.6016 26.2746 13.9414C26.2043 14.2695 26.1574 14.6035 26.134 14.9434L26.4504 15.2246C26.6027 15.002 26.7902 14.8438 27.0129 14.75C27.2472 14.6562 27.4816 14.5801 27.716 14.5215C27.9504 14.4512 28.1789 14.375 28.4015 14.293C28.6242 14.1992 28.8175 14.041 28.9816 13.8184C29.0519 13.4785 29.1984 13.2383 29.4211 13.0977C29.6437 12.9453 29.8781 12.8164 30.1242 12.7109C30.3703 12.6055 30.6047 12.4883 30.8273 12.3594C31.0617 12.2188 31.2257 11.9961 31.3195 11.6914H31.759C31.7355 11.75 31.7472 11.8027 31.7941 11.8496C31.841 11.8965 31.882 11.9375 31.9172 11.9727ZM22.1965 19.7598C22.0793 19.8301 21.9504 19.8945 21.8097 19.9531C21.6691 20.0117 21.5285 20.0762 21.3879 20.1465C21.2472 20.2168 21.1183 20.2988 21.0011 20.3926C20.884 20.4863 20.7961 20.6035 20.7375 20.7441C20.6086 20.6738 20.4855 20.668 20.3683 20.7266C20.2629 20.7969 20.1574 20.873 20.0519 20.9551C19.9465 21.0488 19.8351 21.125 19.7179 21.1836C19.6125 21.2422 19.4953 21.2363 19.3664 21.166C19.1437 21.3066 18.9328 21.459 18.7336 21.623C18.5226 21.7871 18.3117 21.9453 18.1007 22.0977C17.8898 22.2617 17.673 22.4082 17.4504 22.5371C17.216 22.6777 16.9699 22.7832 16.7121 22.8535C16.5832 23.0645 16.4132 23.2285 16.2023 23.3457C15.9914 23.4746 15.7804 23.5977 15.5695 23.7148C15.3468 23.832 15.1476 23.9727 14.9718 24.1367C14.7961 24.3008 14.6847 24.5293 14.6379 24.8223C14.2746 25.0566 14.0285 25.3555 13.8996 25.7188C13.759 26.0938 13.6828 26.4863 13.6711 26.8965C13.6593 27.3184 13.6769 27.7402 13.7238 28.1621C13.7707 28.5957 13.7941 28.9883 13.7941 29.3398C13.9465 29.5156 14.0988 29.6387 14.2511 29.709C14.4035 29.7793 14.5617 29.8145 14.7257 29.8145C14.8898 29.8145 15.0597 29.791 15.2355 29.7441C15.3996 29.709 15.5812 29.6738 15.7804 29.6387C15.8273 29.4629 15.9152 29.3457 16.0441 29.2871C16.1613 29.2402 16.2902 29.2051 16.4308 29.1816C16.5597 29.1582 16.6828 29.123 16.8 29.0762C16.9054 29.041 16.964 28.9473 16.9757 28.7949L17.134 28.9355C17.1457 28.748 17.1984 28.5898 17.2922 28.4609C17.3859 28.3438 17.4972 28.2324 17.6261 28.127C17.755 28.0215 17.8957 27.9219 18.048 27.8281C18.1886 27.7344 18.3117 27.6289 18.4172 27.5117C18.3937 27.2891 18.4347 27.1016 18.5402 26.9492C18.6457 26.7969 18.7629 26.6562 18.8918 26.5273C19.0207 26.3984 19.1379 26.2578 19.2433 26.1055C19.3371 25.9531 19.3722 25.7598 19.3488 25.5254C19.466 25.4785 19.548 25.4023 19.5949 25.2969C19.6418 25.1914 19.6886 25.0918 19.7355 24.998C19.7824 24.9043 19.841 24.834 19.9113 24.7871C19.9933 24.7402 20.1164 24.752 20.2804 24.8223C20.1164 24.6934 20.0461 24.5938 20.0695 24.5234C20.1047 24.4531 20.1632 24.3887 20.2453 24.3301C20.3273 24.2832 20.4035 24.2246 20.4738 24.1543C20.5441 24.084 20.5441 23.9785 20.4738 23.8379C20.755 23.7207 20.9367 23.5508 21.0187 23.3281C21.1007 23.1055 21.1593 22.8652 21.1945 22.6074C21.2414 22.3613 21.3058 22.1152 21.3879 21.8691C21.4699 21.6348 21.6515 21.4473 21.9328 21.3066C21.9093 21.0957 21.9445 20.9082 22.0382 20.7441C22.1437 20.5918 22.2433 20.4453 22.3371 20.3047C22.4425 20.1641 22.5129 20.0176 22.548 19.8652C22.5949 19.7129 22.5539 19.5312 22.425 19.3203L22.1965 19.7598ZM42.8507 11.4805C42.8976 11.6562 42.88 11.8086 42.798 11.9375C42.716 12.0547 42.6047 12.1602 42.464 12.2539C42.3351 12.3477 42.1886 12.4355 42.0246 12.5176C41.8722 12.5879 41.7433 12.6699 41.6379 12.7637C41.1105 12.8809 40.63 12.9688 40.1965 13.0273C39.7746 13.0742 39.3058 13.1387 38.7902 13.2207C38.6379 13.2441 38.4914 13.2441 38.3507 13.2207C38.2218 13.1855 38.0871 13.1738 37.9465 13.1855C37.8644 13.1855 37.7882 13.1855 37.7179 13.1855C37.6476 13.1738 37.5773 13.1738 37.507 13.1855C37.2375 13.209 37.0617 13.3027 36.9797 13.4668C36.8976 13.6191 36.8273 13.8008 36.7687 14.0117C36.7218 14.2109 36.6574 14.4043 36.5754 14.5918C36.505 14.7676 36.3468 14.8906 36.1007 14.9609C36.0773 15.0195 36.0832 15.0723 36.1183 15.1191C36.1652 15.166 36.2004 15.207 36.2238 15.2422C36.0246 15.3008 35.8898 15.4062 35.8195 15.5586C35.7609 15.7109 35.7082 15.8633 35.6613 16.0156C35.6144 16.168 35.5441 16.2969 35.4504 16.4023C35.3683 16.5078 35.2043 16.543 34.9582 16.5078C34.5949 16.8945 34.1672 17.2051 33.675 17.4395C33.1828 17.6855 32.673 17.8438 32.1457 17.9141C32.0519 17.8672 31.9582 17.8086 31.8644 17.7383C31.7824 17.668 31.6945 17.6035 31.6007 17.5449C31.5187 17.4863 31.425 17.4395 31.3195 17.4043C31.2257 17.3809 31.1144 17.3809 30.9855 17.4043C30.9738 17.1582 30.9269 16.9297 30.8449 16.7188C30.7511 16.5078 30.634 16.3086 30.4933 16.1211C30.4699 15.9102 30.4992 15.7168 30.5812 15.541C30.6515 15.3535 30.7277 15.1719 30.8097 14.9961C30.8918 14.8203 30.9621 14.6445 31.0207 14.4688C31.0675 14.2812 31.0558 14.0703 30.9855 13.8359C31.1027 13.7656 31.1789 13.6836 31.214 13.5898C31.2609 13.4961 31.2902 13.4023 31.3019 13.3086C31.3254 13.2031 31.3547 13.1094 31.3898 13.0273C31.425 12.9336 31.507 12.8574 31.6359 12.7988C31.5422 12.5176 31.5539 12.3125 31.6711 12.1836C31.8 12.043 31.9523 11.9199 32.1281 11.8145C32.3039 11.709 32.4679 11.5918 32.6203 11.4629C32.7726 11.334 32.8312 11.1406 32.7961 10.8828C32.8664 10.8125 32.9484 10.7539 33.0422 10.707C33.1359 10.6602 33.2238 10.6191 33.3058 10.584C33.3996 10.5371 33.4875 10.4902 33.5695 10.4434C33.6515 10.3965 33.7277 10.332 33.798 10.25C33.716 10.1914 33.675 10.1328 33.675 10.0742C33.6867 10.0156 33.7043 9.95703 33.7277 9.89844C33.7511 9.82812 33.7746 9.75781 33.798 9.6875C33.8332 9.61719 33.8332 9.54688 33.798 9.47656C34.1144 9.52344 34.3898 9.48242 34.6242 9.35352C34.8703 9.21289 35.0988 9.07227 35.3097 8.93164C35.5324 8.79102 35.755 8.69141 35.9777 8.63281C36.2004 8.57422 36.4582 8.64453 36.7511 8.84375C36.7746 8.92578 36.8097 9.04883 36.8566 9.21289C36.9152 9.36523 36.9679 9.52344 37.0148 9.6875C37.0734 9.85156 37.1261 10.0098 37.173 10.1621C37.2199 10.3145 37.2492 10.4258 37.2609 10.4961C37.2609 10.5547 37.2609 10.6484 37.2609 10.7773C37.2609 10.9062 37.2609 11.0469 37.2609 11.1992C37.2609 11.3398 37.2609 11.4746 37.2609 11.6035C37.2609 11.7324 37.2609 11.832 37.2609 11.9023C37.6007 12.1016 37.9406 12.2246 38.2804 12.2715C38.6203 12.3066 38.9601 12.2246 39.3 12.0254C39.4289 12.1426 39.5519 12.1777 39.6691 12.1309C39.7863 12.0723 39.8976 12.0078 40.0031 11.9375C40.1203 11.8672 40.2375 11.832 40.3547 11.832C40.4718 11.8203 40.589 11.9141 40.7062 12.1133C40.8703 11.9609 41.0402 11.8672 41.216 11.832C41.3918 11.7852 41.5734 11.7617 41.7609 11.7617C41.9484 11.75 42.13 11.7324 42.3058 11.709C42.4933 11.6855 42.675 11.6094 42.8507 11.4805ZM36.1007 11.7793C36.1007 11.6035 36.13 11.416 36.1886 11.2168C36.2472 11.0176 36.2941 10.8242 36.3293 10.6367C36.3644 10.4375 36.3586 10.25 36.3117 10.0742C36.2765 9.89844 36.1652 9.74023 35.9777 9.59961C35.8488 9.66992 35.7433 9.76953 35.6613 9.89844C35.5793 10.0156 35.4972 10.1387 35.4152 10.2676C35.3332 10.3848 35.2336 10.4844 35.1164 10.5664C35.0109 10.6484 34.8703 10.6719 34.6945 10.6367C34.6359 10.7773 34.6359 10.8945 34.6945 10.9883C34.7531 11.0703 34.8234 11.1523 34.9054 11.2344C34.9875 11.3047 35.0636 11.3809 35.134 11.4629C35.216 11.5449 35.2453 11.6504 35.2218 11.7793C35.2687 11.8145 35.3332 11.8496 35.4152 11.8848C35.4972 11.9082 35.5793 11.9258 35.6613 11.9375C35.755 11.9375 35.8429 11.9258 35.925 11.9023C36.007 11.8789 36.0656 11.8379 36.1007 11.7793ZM35.9777 13.1855C35.7433 13.1855 35.5382 13.1328 35.3625 13.0273C35.1984 12.9102 35.0285 12.7812 34.8527 12.6406C34.6886 12.5 34.5129 12.3711 34.3254 12.2539C34.1496 12.125 33.9328 12.0488 33.675 12.0254C33.5695 12.166 33.4465 12.3008 33.3058 12.4297C33.1652 12.5469 33.0422 12.6758 32.9367 12.8164C32.8312 12.957 32.755 13.1094 32.7082 13.2734C32.673 13.4375 32.7023 13.625 32.7961 13.8359C32.5265 13.9648 32.3449 14.1523 32.2511 14.3984C32.1574 14.6328 32.0929 14.8906 32.0578 15.1719C32.0343 15.4531 32.0109 15.7344 31.9875 16.0156C31.964 16.2969 31.8879 16.5488 31.759 16.7715L32.1457 16.5078C32.1925 16.5312 32.2277 16.5664 32.2511 16.6133C32.2863 16.6602 32.2922 16.7129 32.2687 16.7715C32.3625 16.6777 32.4679 16.6074 32.5851 16.5605C32.7023 16.502 32.8195 16.4609 32.9367 16.4375C33.0656 16.4023 33.1886 16.373 33.3058 16.3496C33.4347 16.3262 33.5578 16.291 33.675 16.2441C33.9679 16.4082 34.1789 16.4434 34.3078 16.3496C34.4367 16.2559 34.5422 16.1152 34.6242 15.9277C34.7062 15.7402 34.7941 15.5469 34.8879 15.3477C34.9816 15.1367 35.134 15.0078 35.3449 14.9609L35.2218 14.8379C35.4211 14.5918 35.5968 14.3398 35.7492 14.082C35.9132 13.8125 35.9894 13.5137 35.9777 13.1855Z" fill="#231F20"/>
</svg>
